<svg width="40" height="40" viewBox="0 0 40 40" fill="none" xmlns="http://www.w3.org/2000/svg">
<path d="M0.6248 0H39.3752C39.7192 0 40 0.2816 40 0.6248V39.3752C40 39.7192 39.7184 40 39.3752 40H0.6248C0.2816 40 0 39.7184 0 39.3752V0.6248C0 0.2816 0.2816 0 0.6248 0Z" fill="#ED6965"/>
<path d="M14.2032 12.6126C14.3472 12.3286 14.5064 12.0534 14.728 11.8318C15.7784 10.7846 17.2344 11.263 18.444 11.7006C20.6656 12.5006 24.1504 14.607 26.1504 12.2598C26.4976 11.8502 26.7752 11.335 26.9944 10.8382C27.3256 10.1006 27.5912 9.32539 27.6976 8.52539H26.2664V8.53499C26.1104 9.26939 25.7352 10.0598 25.1448 10.5662L25.1576 10.579L25.1448 10.5662C24.8581 10.8207 24.5083 10.9934 24.132 11.0662C23.6536 11.1566 23.1728 11.0758 22.7104 10.9598C20.4352 10.419 18.3824 8.80059 15.9576 8.97899C13.5136 9.15739 12.8544 11.7446 12.3136 13.6822H13.8264C13.9136 13.307 14.0264 12.951 14.2048 12.6134L14.2032 12.6126ZM31.956 17.7342H8.05276C7.88554 17.7332 7.71979 17.7655 7.56524 17.8294C7.41069 17.8933 7.27046 17.9874 7.15276 18.1062C7.03327 18.2231 6.93954 18.3637 6.87756 18.519C6.81429 18.6728 6.78142 18.8375 6.78076 19.0038V21.0038C6.78076 21.3414 6.91516 21.6662 7.15276 21.9038C7.39036 22.1414 7.71516 22.2758 8.05276 22.2758H31.9464C32.284 22.2758 32.6088 22.1446 32.8496 21.9038C33.0889 21.6651 33.2248 21.3418 33.228 21.0038V19.0038C33.2273 18.8375 33.1944 18.6728 33.1312 18.519C33.0662 18.3653 32.9728 18.2253 32.856 18.1062C32.7376 17.9878 32.5968 17.8934 32.44 17.831C32.2832 17.7686 32.1208 17.7342 31.956 17.7342V17.7342ZM31.956 25.547H8.05276C7.80075 25.5448 7.55391 25.6185 7.34432 25.7584C7.13473 25.8984 6.9721 26.0982 6.87756 26.3318C6.81516 26.4846 6.78076 26.6502 6.78076 26.819V28.819C6.78152 28.9851 6.81439 29.1494 6.87756 29.303C6.93996 29.459 7.03356 29.5998 7.15276 29.7158C7.2707 29.8341 7.41103 29.9276 7.56556 29.991C7.7197 30.056 7.88547 30.0889 8.05276 30.0878H31.9464C32.1138 30.0888 32.2797 30.0567 32.4347 29.9934C32.5897 29.9301 32.7307 29.8369 32.8496 29.719C33.0882 29.4798 33.224 29.1568 33.228 28.819V26.819C33.228 26.6502 33.1936 26.4846 33.1312 26.3318C33.0688 26.179 32.972 26.0382 32.856 25.919C32.7381 25.7991 32.5964 25.7054 32.44 25.6438C32.2868 25.5792 32.1222 25.5463 31.956 25.547V25.547Z" fill="white"/>
</svg>
