<svg xmlns="http://www.w3.org/2000/svg" xmlns:xlink="http://www.w3.org/1999/xlink" width="24" height="24" preserveAspectRatio="xMidYMid meet" viewBox="0 0 24 24" style="-ms-transform: rotate(360deg); -webkit-transform: rotate(360deg); transform: rotate(360deg);"><g fill="#333333"><path d="M10.005 2.242a1 1 0 0 1 .321.988c-.594 2.518-.809 5.709.454 7.934c.607 1.07 1.576 1.955 3.124 2.454c1.576.509 3.802.632 6.91.046a1 1 0 0 1 1.114 1.356c-1.51 3.757-4.863 6.98-9.399 6.98C6.714 22 2 17.286 2 11.47c0-4.536 3.223-7.888 6.98-9.398a1 1 0 0 1 1.025.17zm-2 2.56C5.642 6.282 4 8.637 4 11.47A8.53 8.53 0 0 0 12.53 20c2.86 0 5.233-1.673 6.712-4.075c-2.4.27-4.362.11-5.952-.403c-2.028-.655-3.396-1.869-4.25-3.37c-1.265-2.23-1.344-4.999-1.034-7.35z"/></g><rect x="0" y="0" width="24" height="24" fill="rgba(0, 0, 0, 0)" /></svg>